<svg width="158" height="158" viewBox="0 0 158 158" fill="none" xmlns="http://www.w3.org/2000/svg">
<path d="M9.875 37.0312C9.875 27.492 17.617 19.75 27.1562 19.75H59.25C67.0315 19.75 74.0526 23.0186 79 28.2721C81.5352 25.5777 84.5956 23.4315 87.9924 21.9657C91.3893 20.5 95.0504 19.7459 98.75 19.75H130.844C140.383 19.75 148.125 27.492 148.125 37.0312V71.1C145.873 69.8009 143.319 69.117 140.719 69.117C138.119 69.117 135.565 69.8009 133.312 71.1V37.0312C133.312 36.3765 133.052 35.7485 132.589 35.2856C132.126 34.8226 131.499 34.5625 130.844 34.5625H98.75C91.9363 34.5625 86.4062 40.0925 86.4062 46.9062V80.2739L77.8051 88.875H74.0625C73.2355 88.8722 72.4098 88.9383 71.5938 89.0725V46.9062C71.5938 40.0925 66.0637 34.5625 59.25 34.5625H27.1562C26.5015 34.5625 25.8736 34.8226 25.4106 35.2856C24.9476 35.7485 24.6875 36.3765 24.6875 37.0312V120.969C24.6875 122.331 25.7935 123.437 27.1562 123.437H59.25C59.2498 126.259 60.0555 129.022 61.5722 131.401C63.0889 133.78 65.2536 135.677 67.8116 136.867C65.0511 137.787 62.1598 138.254 59.25 138.25H27.1562C22.573 138.25 18.1774 136.429 14.9366 133.188C11.6957 129.948 9.875 125.552 9.875 120.969V37.0312ZM105.574 79.3752C106.477 79.7485 107.248 80.3812 107.792 81.1933C108.335 82.0054 108.625 82.9605 108.625 83.9375V143.187C108.627 144.165 108.338 145.122 107.796 145.935C107.253 146.749 106.482 147.383 105.578 147.757C104.675 148.132 103.681 148.23 102.722 148.038C101.763 147.847 100.882 147.376 100.192 146.683L81.8934 128.375H74.0625C72.753 128.375 71.4971 127.855 70.5712 126.929C69.6452 126.003 69.125 124.747 69.125 123.437V103.687C69.125 102.378 69.6452 101.122 70.5712 100.196C71.4971 99.2702 72.753 98.75 74.0625 98.75H81.8934L100.192 80.4417C100.883 79.7516 101.763 79.282 102.721 79.0921C103.679 78.9023 104.672 79.0008 105.574 79.3752V79.3752ZM144.669 80.975C145.864 82.5747 147.483 85.4484 149.043 89.6057C151.562 96.3207 153.062 104.319 153.062 113.562C153.062 122.805 151.562 130.794 149.043 137.519C147.483 141.677 145.864 144.55 144.669 146.15C143.932 147.143 142.85 147.823 141.636 148.056C140.422 148.289 139.164 148.058 138.112 147.409C137.06 146.761 136.29 145.741 135.953 144.551C135.617 143.362 135.739 142.089 136.295 140.985L137.44 139.188C138.367 137.544 139.156 135.827 139.8 134.053C141.904 128.424 143.188 121.601 143.188 113.562C143.188 105.524 141.904 98.7006 139.8 93.0817C139.156 91.3081 138.367 89.5906 137.44 87.9467L136.769 86.9C135.983 85.8524 135.646 84.5356 135.831 83.2392C136.016 81.9429 136.709 80.7732 137.756 79.9875C138.804 79.2018 140.121 78.8644 141.417 79.0496C142.713 79.2348 143.883 79.9274 144.669 80.975V80.975ZM127.852 91.6005C128.572 93.0324 129.58 95.4024 130.587 98.4142C132.285 103.52 133.312 108.645 133.312 113.562C133.312 118.49 132.285 123.615 130.587 128.701C129.83 131.031 128.916 133.308 127.852 135.515C127.574 136.115 127.179 136.653 126.69 137.098C126.201 137.543 125.627 137.885 125.003 138.103C124.379 138.322 123.717 138.413 123.057 138.372C122.397 138.33 121.753 138.156 121.161 137.86C120.57 137.565 120.044 137.153 119.614 136.65C119.185 136.147 118.861 135.563 118.662 134.933C118.462 134.302 118.391 133.638 118.454 132.98C118.516 132.322 118.71 131.683 119.023 131.1L119.774 129.441C120.307 128.173 120.791 126.885 121.226 125.58C122.608 121.413 123.438 117.285 123.438 113.562C123.438 109.849 122.608 105.712 121.226 101.545C120.613 99.6551 119.878 97.8078 119.023 96.0146C118.71 95.4326 118.516 94.7935 118.454 94.1351C118.391 93.4768 118.462 92.8127 118.662 92.1823C118.861 91.5518 119.185 90.9678 119.614 90.4649C120.044 89.9621 120.57 89.5506 121.161 89.2548C121.753 88.9591 122.397 88.7852 123.057 88.7434C123.717 88.7017 124.379 88.7929 125.003 89.0116C125.627 89.2304 126.201 89.5723 126.69 90.017C127.179 90.4617 127.574 91.0002 127.852 91.6005V91.6005Z" fill="#F4FEFF"/>
</svg>
